<svg width="261" height="204" viewBox="0 0 261 204" fill="none" xmlns="http://www.w3.org/2000/svg">
<circle opacity="0.1" cx="136.284" cy="102.5" r="101.5" fill="white"/>
<path d="M246.908 152.26C238.512 140.57 200.645 130.027 154.766 127.405C108.886 124.783 70.0317 130.956 60.3729 141.553L58.3424 141.444L58.068 146.306C58.068 146.36 58.068 146.415 58.068 146.469C57.2997 160.071 99.3374 173.509 151.967 176.513C204.596 179.518 247.896 170.996 248.719 157.395H248.884L249.104 152.369L246.908 152.26Z" fill="#CEDCE0"/>
<path fill-rule="evenodd" clip-rule="evenodd" d="M155.065 122.524C207.714 125.572 249.756 139.055 248.97 152.638C248.183 166.222 204.866 174.762 152.217 171.714C99.5678 168.665 57.525 155.182 58.3115 141.599C59.098 128.016 102.416 119.475 155.065 122.524C207.714 125.572 155.065 122.524 155.065 122.524Z" fill="white"/>
<g opacity="0.5">
<path fill-rule="evenodd" clip-rule="evenodd" d="M154.158 137.733C177.365 139.076 195.898 145.025 195.551 151.018C195.204 157.012 176.109 160.781 152.901 159.438C129.693 158.094 111.161 152.146 111.508 146.152C111.855 140.158 130.95 136.389 154.158 137.733C177.365 139.076 154.158 137.733 154.158 137.733Z" fill="#CFD3D6"/>
</g>
<path d="M113.825 8.05035C72.556 21.9797 49.0127 64.2595 57.6287 105.665L57.7385 105.611C57.7385 105.665 57.7385 105.665 57.7934 105.72C61.6898 117.191 100.764 114.351 144.997 99.4381C189.23 84.5255 221.993 63.1124 218.096 51.6412C218.096 51.5865 218.042 51.5865 218.042 51.5319H218.096C199.657 13.4036 155.095 -5.87904 113.825 8.05035Z" fill="url(#paint0_linear_1_12)"/>
<path d="M110.752 0.456834C107.624 1.65859 105.868 5.20921 106.856 8.43209C107.24 9.7431 108.008 10.8356 108.996 11.655C110.094 12.5836 110.972 13.7854 111.411 15.151V15.2056C112.014 16.9536 113.88 17.8822 115.636 17.2814L117.612 16.6259C119.423 16.025 120.356 14.1131 119.752 12.3105C119.258 10.9448 119.258 9.41535 119.588 7.99509C119.862 6.84797 119.807 5.59159 119.423 4.44446C118.216 0.893834 114.319 -0.908793 110.752 0.456834Z" fill="#3B5059"/>
<path d="M222.267 69.4478C222.487 69.0654 222.981 68.9016 223.31 69.1747L230.609 74.3094C230.993 74.5826 230.993 75.1288 230.664 75.4566L214.365 88.5666C213.761 89.0582 212.938 88.4027 213.267 87.6926L222.267 69.4478Z" fill="#EA5046"/>
<path d="M239.499 76.2768C239.884 76.0037 240.377 76.113 240.597 76.55L244.713 84.4706C244.932 84.9076 244.713 85.3992 244.219 85.5085L223.694 89.7692C222.871 89.8239 222.432 88.8406 223.09 88.4036L239.499 76.2768Z" fill="#EA5046"/>
<path d="M236.81 92.9382C237.249 92.8289 237.688 93.1567 237.688 93.5937L237.963 98.8377C237.963 99.3293 237.579 99.6571 237.085 99.6024L225.011 96.9804C224.243 96.8166 224.243 95.7787 225.011 95.5602L236.81 92.9382Z" fill="#EA5046"/>
<path d="M217.932 56.2846C181.163 87.5848 122.551 102.443 91.1603 99.056C69.0438 96.6525 63.7205 75.021 64.379 51.5322C56.4215 67.9197 53.6775 86.9293 57.6289 105.666L57.7386 105.611C57.7386 105.666 57.7386 105.666 57.7935 105.72C61.6899 117.246 100.764 114.406 144.997 99.493C183.852 86.383 213.816 68.3021 217.932 56.2846Z" fill="#DFE3E6"/>
<path d="M9.77393 112.166C21.2986 116.59 30.5184 123.145 36.5003 131.175L61.0314 164.169C61.5802 164.934 61.0863 165.917 59.9338 166.354L46.159 171.762C45.0066 172.199 43.5797 171.98 43.0309 171.215L0.224895 112.002C-0.762936 110.636 1.70664 109.052 3.6823 109.817L9.77393 112.166Z" fill="url(#paint1_linear_1_12)"/>
<path d="M75.355 189.297L59.2753 167.72L48.6835 171.926L46.0493 170.232V172.964L63.6656 196.616C65.4218 198.965 69.8121 199.73 73.4342 198.255C76.0684 197.217 77.605 195.305 77.605 193.448V190.771L75.355 189.297Z" fill="#041724"/>
<path d="M76.8916 188.586L59.2753 164.988L46.0493 170.178L63.6656 193.83C65.4218 196.179 69.8122 196.944 73.4342 195.469C77.1111 194.049 78.6478 190.935 76.8916 188.586Z" fill="#4F6B78"/>
<path d="M255.085 127.57C254.646 128.39 253.659 128.772 252.78 128.39C251.793 128.007 251.354 126.805 251.848 125.877L254.591 120.797C254.976 120.141 254.646 119.267 253.933 118.994C253.329 118.721 252.616 118.994 252.287 119.595L249.268 125.221C248.829 126.041 247.841 126.423 246.963 126.041C245.975 125.658 245.536 124.457 246.03 123.528L248.774 118.448C249.158 117.792 248.829 116.918 248.116 116.645C247.512 116.372 246.799 116.645 246.469 117.246L242.683 124.347L242.298 125.057L241.75 126.095C240.872 127.734 241.64 129.646 243.451 130.738L218.755 175.367C217.767 177.17 218.865 179.409 221.17 180.338C223.475 181.267 226.109 180.556 227.097 178.754L250.585 133.634C252.671 134.18 254.921 133.415 255.799 131.831L256.348 130.793L256.732 130.083L260.409 123.255C260.793 122.599 260.464 121.725 259.75 121.452C259.146 121.124 258.433 121.343 258.104 121.944L255.085 127.57Z" fill="url(#paint2_linear_1_12)"/>
<path opacity="0.3" d="M40.3966 136.418L36.5002 131.174C35.2928 129.59 33.9757 128.006 32.5489 126.531L9.44458 124.729L17.8411 136.418H40.3966Z" fill="#E5E5E5"/>
<path opacity="0.3" d="M23.1096 143.684L26.6768 148.6H49.4518L45.7749 143.684H23.1096Z" fill="#E5E5E5"/>
<defs>
<linearGradient id="paint0_linear_1_12" x1="55.8611" y1="3.52637" x2="55.8611" y2="112.767" gradientUnits="userSpaceOnUse">
<stop stop-color="white"/>
<stop offset="1" stop-color="#EAE7E7"/>
</linearGradient>
<linearGradient id="paint1_linear_1_12" x1="0" y1="109.617" x2="0" y2="171.984" gradientUnits="userSpaceOnUse">
<stop stop-color="#A2AFB5"/>
<stop offset="1" stop-color="#BEC8CC"/>
</linearGradient>
<linearGradient id="paint2_linear_1_12" x1="218.392" y1="116.539" x2="218.392" y2="180.746" gradientUnits="userSpaceOnUse">
<stop stop-color="#A2AFB5"/>
<stop offset="1" stop-color="#BEC8CC"/>
</linearGradient>
</defs>
</svg>
