<svg width="17" height="17" viewBox="0 0 17 17" fill="none" xmlns="http://www.w3.org/2000/svg">
<path fill-rule="evenodd" clip-rule="evenodd" d="M7.82843 15.8281C7.82843 16.3804 8.27614 16.8281 8.82843 16.8281C9.38071 16.8281 9.82843 16.3804 9.82843 15.8281L9.82843 9.82812H15.8284C16.3807 9.82812 16.8284 9.38041 16.8284 8.82812C16.8284 8.27584 16.3807 7.82812 15.8284 7.82813H9.82843V1.82813C9.82843 1.27584 9.38071 0.828126 8.82843 0.828126C8.27614 0.828126 7.82843 1.27584 7.82843 1.82813L7.82843 7.82812L1.82843 7.82812C1.27614 7.82812 0.828428 8.27584 0.828428 8.82812C0.828428 9.38041 1.27614 9.82813 1.82843 9.82812H7.82843L7.82843 15.8281Z" fill="black"/>
</svg>
