<svg width="51" height="51" viewBox="0 0 51 51" fill="none" xmlns="http://www.w3.org/2000/svg">
<g clip-path="url(#clip0_205_6275)">
<path d="M28.2599 6.68945L46.6071 38.4667C46.8869 38.9513 47.0342 39.5009 47.0342 40.0604C47.0342 40.6199 46.8869 41.1696 46.6072 41.6542C46.3274 42.1387 45.925 42.5411 45.4405 42.8209C44.9559 43.1006 44.4063 43.2479 43.8468 43.248H7.15226C6.59275 43.2479 6.04309 43.1006 5.55854 42.8209C5.07399 42.5411 4.67162 42.1387 4.39187 41.6542C4.11212 41.1696 3.96484 40.6199 3.96484 40.0604C3.96485 39.5009 4.11213 38.9513 4.39189 38.4667L22.7391 6.68945C23.9653 4.56445 27.0316 4.56445 28.2599 6.68945ZM25.4995 31.875C24.9359 31.875 24.3954 32.0988 23.9969 32.4974C23.5984 32.8959 23.3745 33.4364 23.3745 34C23.3745 34.5635 23.5984 35.104 23.9969 35.5026C24.3954 35.9011 24.9359 36.125 25.4995 36.125C26.0631 36.125 26.6036 35.9011 27.0021 35.5026C27.4006 35.104 27.6245 34.5635 27.6245 34C27.6245 33.4364 27.4006 32.8959 27.0021 32.4974C26.6036 32.0988 26.0631 31.875 25.4995 31.875ZM25.4995 17C24.979 17 24.4767 17.1911 24.0877 17.537C23.6988 17.8828 23.4503 18.3594 23.3894 18.8763L23.3745 19.125V27.625C23.3751 28.1666 23.5825 28.6875 23.9543 29.0814C24.3261 29.4752 24.8343 29.7122 25.375 29.7439C25.9157 29.7757 26.4481 29.5998 26.8634 29.2521C27.2787 28.9045 27.5457 28.4114 27.6096 27.8736L27.6245 27.625V19.125C27.6245 18.5614 27.4006 18.0209 27.0021 17.6224C26.6036 17.2238 26.0631 17 25.4995 17Z" fill="#FE724C"/>
</g>
<defs>
<clipPath id="clip0_205_6275">
<rect width="51" height="51" fill="white"/>
</clipPath>
</defs>
</svg>
